<svg width="24" height="24" viewBox="0 0 24 24" fill="none" xmlns="http://www.w3.org/2000/svg">
<path d="M11.475 14.475L7.85001 10.85C7.80001 10.8 7.76268 10.746 7.73801 10.688C7.71335 10.63 7.70068 10.5673 7.70001 10.5C7.70001 10.3667 7.74601 10.25 7.83801 10.15C7.93001 10.05 8.05068 10 8.20001 10H15.8C15.95 10 16.071 10.05 16.163 10.15C16.255 10.25 16.3007 10.3667 16.3 10.5C16.3 10.5333 16.25 10.65 16.15 10.85L12.525 14.475C12.4417 14.5583 12.3583 14.6167 12.275 14.65C12.1917 14.6833 12.1 14.7 12 14.7C11.9 14.7 11.8083 14.6833 11.725 14.65C11.6417 14.6167 11.5583 14.5583 11.475 14.475Z" fill="black"/>
</svg>
