<svg width="176" height="199" viewBox="0 0 176 199" fill="none" xmlns="http://www.w3.org/2000/svg">
<path d="M168.728 69.1476C170.078 72.2215 171.36 76.4229 172.096 79.6686C172.33 80.6896 171.929 80.2541 172.074 80.9601C172.355 82.343 172.809 83.5552 173.024 84.9439C173.093 85.4011 172.549 84.9448 172.63 85.4206C173.068 88.0185 173.683 90.4316 174.056 93.0653C175.873 106.043 175.883 119.07 173.36 132.073C172.535 136.375 170.873 141.419 169.586 145.728C169.437 146.234 169.886 146.054 169.883 146.159C169.808 147.807 169.275 147.066 168.836 147.996C167.084 151.691 165.22 155.779 163.488 159.299C162.749 160.792 164.193 159.678 163.019 160.951C162.938 161.039 162.803 160.48 162.544 160.856C161.96 161.714 161.01 163.439 160.554 164.097C159.679 165.367 159.538 165.588 158.714 166.795C157.582 168.439 156.007 170.236 154.723 171.946C154.448 172.314 155.145 172.098 154.73 172.708C154.318 173.324 153.016 174.773 152.502 175.19C151.991 175.613 151.946 175.192 151.815 175.229C150.736 175.518 149.791 177.695 149.59 177.914C146.081 181.877 142.203 184.358 138.083 187.048C134.963 189.083 131.535 191.097 128.259 192.515C128.232 192.527 128.204 192.538 128.177 192.55C124.249 194.233 120.768 195.181 116.777 196.225C116.355 196.332 116.964 196.668 116.446 196.8C110.932 198.191 105.248 198.797 99.6181 198.49C99.0538 198.458 99.7796 198.044 99.2184 197.986C95.763 197.683 90.553 196.36 88.283 197.812C85.9731 197.41 83.2036 196.789 81.2689 195.948C80.0261 195.404 81.3926 195.281 79.7606 195.065C79.3924 195.013 79.7582 195.517 79.2113 195.409C76.9077 194.95 74.4964 194.063 72.2555 193.478C71.7976 193.359 71.7984 193.735 71.6505 193.749C70.405 193.852 68.9545 192.364 68.6106 192.153C65.9157 190.551 63.8094 189.772 61.2391 188.451C60.6479 188.143 61.1312 188.928 60.5527 188.645C57.5478 187.163 54.5592 185.354 51.948 183.386C51.367 182.946 52.1482 182.975 51.883 182.748C50.7196 181.747 50.0011 182.181 48.8995 181.203C48.6672 180.996 49.0103 180.814 48.9865 180.751C48.6203 179.757 47.5083 179.989 47.3122 179.867C44.8476 178.351 43.9616 176.51 41.7878 174.83C41.5267 174.627 41.8078 175.446 41.09 174.854C36.3015 170.897 31.7759 166.074 28.1487 161.131C27.5854 160.363 28.2718 160.678 28.2648 160.606C28.1396 159.454 27.0872 159.498 26.8669 159.273C25.1582 157.499 24.3808 155.244 22.5935 154.478C18.0009 147.536 13.6336 140.418 10.5979 132.708C9.84665 130.801 9.19098 128.891 8.63011 126.932C8.59314 126.806 9.0679 126.874 8.99278 126.625C8.11359 123.617 7.7259 124.418 6.28802 122.709C5.92447 122.271 6.34118 120.454 6.36896 120.302C6.46118 119.737 7.2157 120.051 7.21179 119.874C7.16738 118.416 5.26453 119.259 4.71583 117.403C4.70228 117.344 5.13728 117.48 5.1283 117.315C5.10188 116.801 4.82108 116.365 4.81588 115.859C4.8095 114.696 5.67401 114.073 4.69407 112.57C4.57041 112.379 3.50709 112.984 3.16159 111.298C3.01704 110.627 2.35799 107.679 2.27889 106.823C2.192 105.976 2.67269 106.477 2.67706 106.414C2.74776 104.09 3.11224 104.9 3.64472 103.666C4.18373 102.438 2.50692 103.027 2.23961 102.599C1.97033 102.168 2.13449 100.459 2.22465 100.039C2.31178 99.617 2.61681 100.086 2.64885 99.7186C2.86834 97.2887 1.65239 98.785 1.27912 98.0292C0.405417 96.2225 1.56438 94.6492 1.56523 92.9354C1.56635 92.4708 1.29781 92.8692 1.24149 92.4588C1.02765 90.8262 1.38181 89.8489 0.953058 87.9911C0.882023 87.6913 0.0675372 86.1896 0.640928 85.2119C0.723471 85.0743 1.04739 85.4628 1.11961 84.7699C1.22593 83.7295 1.33184 81.8566 1.26991 80.7424C1.22325 79.918 0.649711 80.8379 0.861244 79.8089C0.957504 79.3485 1.22742 80.2217 1.38323 79.3581C1.53435 78.4986 1.67431 76.3048 1.743 75.475C1.80719 74.6422 1.36331 75.0592 1.34202 74.99C1.22092 74.5648 1.19649 72.9347 1.21609 72.7933C1.99808 65.6083 4.09018 59.2646 6.1033 52.5764C6.26435 52.0497 5.74234 52.2588 5.76274 52.177C6.21494 50.3324 6.79421 52.1092 7.59032 51.0104C6.71305 50.8929 7.1155 50.2189 7.5028 48.9529C7.6915 48.3398 7.25305 48.5421 7.24212 48.4752C7.11671 47.3989 7.9828 47.0323 8.17107 46.9291C8.86745 46.5421 8.5974 45.6893 9.07202 45.4319C9.54365 45.1771 9.59501 46.2625 10.1002 45.1096C9.96329 44.658 8.83585 45.1886 9.11411 44.2513C10.1099 40.6798 14.0442 34.9958 15.7733 32.6501C17.4625 30.2646 18.0022 29.4844 19.1258 28.2013C21.1915 25.9225 20.0266 26.4264 21.0591 24.7765C22.1247 23.138 22.6136 24.832 23.0325 24.8358C23.4467 24.8491 23.3984 24.4141 23.7521 24.2865C24.1039 24.1616 23.7809 24.8322 24.353 24.3077C24.9167 23.7811 25.992 21.8751 25.9642 21.4453C25.892 20.5333 24.6672 20.6755 26.3691 19.4089C26.4674 19.3376 26.4497 19.8882 26.8121 19.6014C29.6795 17.3197 32.6504 14.9679 35.8086 13.1561C36.2413 12.9093 36.1145 13.5161 36.3681 13.3778C39.0251 11.9723 37.7322 11.9521 38.7408 10.3862C38.9801 11.5075 40.0778 11.581 42.0613 10.5081C43.2635 9.87067 42.84 9.56616 43.4786 8.86852C43.6711 8.65757 44.6845 8.52281 44.7483 8.24888C44.9684 7.34961 43.7715 6.99087 46.0988 6.29511C46.0998 6.29482 46.1007 6.29454 46.1017 6.29426C46.138 6.28416 46.1431 6.33964 46.1495 6.41017C46.158 6.50291 46.1692 6.62154 46.2562 6.65181C46.2906 6.66382 46.337 6.66194 46.3999 6.63916C48.615 5.86068 48.5752 5.05497 50.9506 4.09648C52.8135 3.34252 56.3537 2.77774 58.567 2.3649C58.7995 3.55003 60.7764 2.83024 61.4773 1.85892C62.9196 1.62347 64.4823 1.33728 65.8988 1.28293C66.3862 1.26427 66.1101 1.65098 66.1755 1.68132C67.168 2.16373 67.7089 1.29759 68.0229 1.23656C71.4113 0.626584 74.2013 1.18534 77.4703 0.702563C77.5853 0.686229 77.8144 -0.151705 78.6611 0.509538C78.7137 0.555459 77.6183 0.877108 79.1486 0.994179C80.6803 1.10876 83.4973 1.83348 85.6449 1.76903C86.1623 1.74882 87.577 1.28125 88.5089 1.99991C88.6324 2.09669 88.439 2.30634 88.6108 2.47528C89.1631 3.0158 89.6782 2.24908 90.2762 3.11318C90.8782 3.98023 92.2528 4.82852 94.4173 4.89207C94.4844 4.89521 95.1495 4.37403 95.7898 4.56726C96.8095 4.87319 98.2148 5.45239 99.2746 5.80221C99.7826 5.96927 99.5913 5.46369 99.6818 5.48582C103.16 6.4231 105.431 7.72398 108.845 9.47642C109.464 9.7931 111.563 10.1736 112.557 11.207C113.646 12.3473 111.346 13.4178 114.534 14.6274C115.786 15.1127 118.674 13.774 120.046 16.2651C124.291 18.6132 127.431 21.8331 131.4 24.6042C131.578 24.7283 132.577 24.6292 132.958 24.9792C133.521 25.4977 133.608 26.0357 133.992 26.4154C135.595 28.0152 137.307 29.2701 138.803 30.8697C139.373 31.4805 138.917 31.5137 139.589 32.2472C140.259 32.9845 141.048 33.1499 141.783 34.3003C142.335 35.1709 142.296 36.5612 143.07 37.6457C143.815 37.0816 144.399 37.7893 145.627 38.9153C145.863 39.1321 145.903 38.6631 146.028 38.7553C146.542 39.1272 146.687 39.743 147.186 40.086C147.307 40.1698 147.563 39.979 147.676 40.0371C148.654 40.524 149.058 42.2615 149.119 42.5588C149.37 43.6988 149.996 43.8615 150.314 44.632C150.629 45.4024 149.74 44.5469 150.191 45.3852C151.127 47.1223 152.559 49.1951 153.594 50.8933C154.01 51.5712 154.086 50.8861 154.154 50.9779C155.122 52.3347 155.56 53.9856 156.751 54.3626C155.402 56.4387 157.442 55.1255 158.179 57.4156C158.235 57.5969 157.429 58.2885 156.962 57.7401C156.498 57.1981 156.26 56.0892 155.569 55.354C155.406 55.1756 153.903 54.5172 153.761 54.3963C152.656 53.4273 153.871 52.4539 153.906 52.3441C154.247 51.1286 152.488 50.2964 152.198 49.9826C150.874 48.5305 150.112 47.018 148.983 45.8272C148.244 45.0477 147.358 45.5588 146.894 44.8685C145.343 42.5947 145.857 40.9505 143.251 39.6926C142.692 39.4296 142.199 40.558 141.59 38.483C141.557 38.3568 141.185 36.6986 140.235 36.3949C140.116 36.3569 139.877 36.5748 139.762 36.4876C139 35.8998 138.77 35.2656 137.973 34.5941C137.175 33.9224 136.185 33.1608 135.435 32.2564C134.988 31.714 134.752 30.6419 134.607 30.2983C134.205 29.3183 132.973 29.122 132.884 28.3421C132.787 27.5524 134.2 27.7751 133.239 26.4502C132.632 27.0343 131.953 27.5847 131.319 28.1516C128.777 25.8329 126.325 23.4894 123.509 21.4756C123.159 21.2278 123.247 21.8502 122.867 21.596C121.271 20.5319 120.052 19.3082 118.303 18.3389C116.95 17.592 115.244 17.1172 113.801 16.4343C113.426 15.1063 111.153 14.2365 109.638 13.3914C109.104 13.0922 109.254 12.8804 108.898 12.6142C107.549 11.6237 107.88 12.7269 107.419 12.6568C105.455 12.3828 106.078 10.5469 103.938 9.7116C103.822 9.66299 102.078 10.0749 101.866 10.066C100.519 10.0005 101.795 9.65524 101.066 9.30207C99.7323 8.66538 98.843 8.09608 97.0986 7.86027C96.5871 7.79186 95.2637 8.05893 94.4613 7.32525C94.3546 7.22854 94.5134 6.92075 94.4185 6.87399C92.6846 6.06271 92.3693 7.09447 91.2624 7.1985C90.1614 7.30498 88.7115 6.25786 88.4197 5.98869C87.6624 5.28439 89.1249 5.88643 89.1815 5.84648C89.8603 5.33278 88.6518 5.19237 87.752 4.9754C87.8101 3.92145 86.5043 3.76106 86.8169 4.75795C86.8537 4.8664 87.5775 4.89404 87.752 4.9754C86.7693 5.83706 85.388 5.73326 83.9649 4.58167C83.293 4.0478 84.0554 3.5943 81.7903 3.54421C80.7646 3.53218 81.091 4.28438 80.189 4.40596C78.1428 4.68541 75.5396 3.92657 73.4347 4.07264C72.6759 4.12526 73.4226 4.50413 72.9069 4.55505C71.544 4.69551 70.3216 4.46379 68.9605 4.72582C68.8379 4.75027 69.1733 5.13562 68.7504 5.17644C65.5521 5.50665 62.7372 5.67001 59.4442 6.41631C57.8558 6.76589 55.1143 7.77401 53.5185 8.27656C51.7173 8.82552 49.6218 9.34714 47.7426 10.021C46.7054 10.3912 45.7504 10.7972 44.9754 11.2407C43.5622 12.0576 44.071 12.27 43.5889 12.8412C42.6677 13.9375 40.1613 14.2984 39.799 14.3545C39.7853 14.3534 40.9419 13.5407 40.1879 13.7488C39.5826 13.6001 39.8107 14.3452 39.799 14.3545C39.5595 14.3708 37.1561 15.8242 36.7501 16.2238C36.5259 16.433 36.8892 16.6555 36.7691 16.7582C33.9199 19.1915 31.1495 21.6489 28.3433 24.1833C28.2906 24.2247 28.0536 23.8442 27.933 23.946C26.2398 25.372 25.6762 26.7909 24.7461 28.3581C23.8163 29.9344 22.8718 30.9759 21.6238 31.383C20.8679 32.5314 19.4707 33.9447 18.6738 34.7905C17.8751 35.6351 18.5109 36.2325 18.4712 36.3232C17.2806 39.226 15.9835 40.5242 14.4521 43.3822C13.7239 44.7273 12.5728 47.5631 12.0468 49.1377C11.6226 50.3839 11.154 51.053 10.8594 52.2327C10.8197 52.3924 11.2319 52.3658 11.2286 52.4177C11.2027 53.8346 10.5488 52.9191 10.2993 53.1277C9.40004 53.8905 8.88356 54.398 8.6372 56.1506C8.57807 56.5589 9.52366 58.0561 9.40678 58.7733C9.2531 59.7039 8.88412 59.2363 8.74437 60.221C8.73259 60.3054 9.02071 60.3618 8.85866 60.9482C8.10922 63.6795 7.32649 66.6754 6.91038 69.5915C6.85256 69.9903 7.39167 69.5506 7.31715 70.1263C6.96866 72.8241 6.64396 75.7842 6.26164 78.4183C6.16618 79.0689 5.8648 78.6394 5.75914 78.7759C5.11789 79.6241 5.92033 80.9073 5.93052 81.1077C6.18258 85.9897 5.51562 89.7365 6.32296 94.6901C6.36559 94.9626 7.48649 96.9274 6.82654 97.9468C6.78224 98.0172 6.09826 99.0323 6.75646 99.7676C6.7978 99.8125 7.12693 99.1888 7.2254 100.184C7.32458 101.18 7.84947 102.733 7.64728 104.159C7.58329 104.609 6.98279 105.783 7.87452 106.943C7.93463 107.032 9.76212 108.665 8.95734 109.583C8.82551 109.732 7.76256 109.856 8.65959 111.252C8.83336 111.517 8.93053 110.935 9.26361 111.662C9.774 112.767 9.91087 114.37 10.7766 115.658C10.9288 115.886 11.9215 116.72 11.6622 117.709C11.6218 117.864 11.2076 117.721 11.3086 118.174C11.7915 120.336 12.7691 122.436 13.3373 124.617C13.5415 125.391 12.863 125.214 13.0243 126.05C13.1819 126.878 13.6797 128.49 14.2638 129.193C14.8464 129.894 15.304 128.664 15.8869 129.828C15.9621 129.977 16.037 130.126 16.1115 130.276C18.5494 135.159 20.6153 140.176 23.4252 144.865C23.8564 145.579 23.7643 144.823 24.4233 145.856C26.8204 149.703 31.7193 155.738 33.7953 159.114C35.4559 161.86 32.515 159.136 33.9472 161.109C34.6473 162.064 36.2791 162.274 36.4922 162.453C38.6151 164.229 39.6171 165.887 41.5152 167.483C41.906 167.809 41.8352 167.157 42.1638 167.436C43.2826 168.378 44.3192 169.559 45.4087 170.444C45.8987 170.84 46.0212 170.515 46.4462 170.905C47.4717 171.837 48.344 172.714 49.2244 173.781C49.3055 173.879 48.3969 173.691 49.2029 174.331C50.5133 175.369 52.0189 176.839 53.7881 177.663C54.3157 177.906 54.7444 177.301 55.4798 178.4C55.6348 178.627 54.8739 179.21 56.4909 179.323C56.7623 179.349 59.3334 179.71 59.9992 180.861C60.1742 181.167 60.4978 182.197 61.1592 182.43C61.2494 182.458 61.1177 181.929 61.633 182.167C63.442 183.011 65.2833 183.991 67.1858 184.732C67.6926 184.928 67.134 184.215 67.8813 184.515C69.9449 185.346 72.4562 186.477 74.4595 187.323C75.195 187.635 74.5616 187.776 74.6035 187.83C75.2894 188.716 76.0836 188.112 76.3925 188.164C78.3193 188.49 79.6065 189.264 81.3624 189.614C81.8441 189.709 81.6037 189.244 81.7068 189.234C82.7643 189.147 81.8674 189.648 82.4699 189.876C84.1562 190.511 86.1397 190.883 87.9319 191.125C88.5928 191.213 87.9271 190.647 88.5165 190.729C91.9954 191.2 95.6173 191.541 99.0342 191.808C99.6785 191.859 99.2727 192.207 99.4073 192.287C100.346 192.849 101.704 192.049 102.008 191.962C103.411 191.573 103.976 191.844 105.222 191.682C111.298 190.93 118.665 189.314 124.044 187.182C124.582 186.975 125.109 186.765 125.628 186.551C131.834 183.956 136.707 181.191 141.747 176.813C142.091 176.51 141.438 176.46 141.728 176.195C145.478 172.787 149.006 169.187 151.922 164.983C152.161 164.638 151.451 164.866 151.819 164.305C152.567 163.16 153.56 161.734 154.42 160.632C154.838 160.094 154.674 161.067 155.089 160.518C156.056 159.237 156.952 157.753 157.668 156.268C157.97 155.635 157.076 156.355 157.498 155.55C160.341 150.05 162.462 144.34 164.669 138.396C164.819 137.99 165.806 137.853 165.861 136.904C165.632 136.775 165.34 136.707 165.084 136.612C167.125 127.733 168.306 118.683 168.038 109.45C168.026 109.061 167.565 109.75 167.538 108.998C167.373 104.671 166.823 100.492 166.597 96.0227C166.572 95.5791 167.455 95.6579 167.106 94.3921C167.048 94.1689 166.577 92.2474 166.29 91.7828C166.249 91.7205 165.929 92.1507 165.792 91.5307C165.006 87.9409 164.144 84.1872 163.292 80.5888C163.156 80.0103 163.748 80.4892 163.654 80.0749C162.975 77.1192 161.574 74.1387 160.86 71.3082C160.38 69.4208 161.325 69.807 161.594 68.5678C161.632 68.392 161.168 67.2642 161.527 67.0387C162.431 66.4668 163.732 66.5611 164.669 65.8878C164.873 65.743 163.953 64.2982 164.893 64.9803C164.958 65.0282 165.625 66.0787 165.925 66.2809C166.133 66.4219 166.379 65.904 166.709 66.2339C167.039 66.565 166.891 67.14 167.351 67.7234C167.812 68.3083 168.149 67.8294 168.728 69.1476ZM15.1977 38.719C14.3145 39.4499 15.5478 40.3101 15.7963 39.1416C15.8072 39.084 15.2426 38.681 15.1977 38.719ZM126.996 22.6559C126.291 21.2656 124.933 21.4649 125.412 22.466C125.879 23.4624 127.207 23.0772 126.996 22.6559ZM138.175 32.1076C137.389 30.5551 135.706 31.8709 137.234 32.8203C137.322 32.8763 138.221 32.1981 138.175 32.1076ZM163.568 72.9934C163.582 72.9724 163.291 72.1446 163.264 72.1321C162.656 71.8662 163.238 73.5145 163.568 72.9934ZM148.014 42.9007C147.935 42.3091 146.765 41.3221 146.872 42.0505C146.958 42.6319 148.113 43.6312 148.014 42.9007ZM2.28994 92.8365C2.26851 92.8552 2.2964 93.4903 2.42139 93.4677C2.82163 93.3928 2.64279 92.524 2.28994 92.8365ZM160.694 64.2662C159.223 60.9191 159.74 58.1098 161.358 61.8391C161.644 62.512 160.17 60.6659 160.433 61.5706C160.91 63.2157 162.387 63.7843 162.56 65.6279C162.59 65.9555 160.777 64.4532 160.689 64.2613C160.691 64.2629 160.693 64.2645 160.694 64.2662ZM13.3284 38.3751C13.2996 38.3837 12.8589 39.1413 12.8669 39.1698C13.0554 39.8103 13.9374 38.2931 13.3284 38.3751ZM9.87925 128.98C9.85423 129.041 10.6055 130.949 10.6718 130.995C11.7946 131.671 10.2854 127.84 9.87925 128.98ZM58.609 2.38842C59.4508 1.70274 60.602 1.40999 61.4728 1.85914C60.5182 2.00483 59.5645 2.1985 58.609 2.38842Z" fill="#FFCB94"/>
</svg>
