<svg width="25" height="25" viewBox="0 0 25 25" fill="none" xmlns="http://www.w3.org/2000/svg">
<path d="M10.7 10.5L8.175 4.175C8.00833 3.775 8.04567 3.396 8.287 3.038C8.52833 2.68 8.866 2.50067 9.3 2.5H9.85C10.05 2.5 10.2417 2.546 10.425 2.638C10.6083 2.73 10.7583 2.859 10.875 3.025L16.1 10.5H20.5C21.05 10.5 21.5207 10.696 21.912 11.088C22.3033 11.48 22.4993 11.9507 22.5 12.5C22.5007 13.0493 22.3047 13.5203 21.912 13.913C21.5193 14.3057 21.0487 14.5013 20.5 14.5H16.1L10.875 21.975C10.7583 22.1417 10.6083 22.271 10.425 22.363C10.2417 22.455 10.05 22.5007 9.85 22.5H9.3C8.86666 22.5 8.529 22.321 8.287 21.963C8.045 21.605 8.00766 21.2257 8.175 20.825L10.7 14.5H7.1L5.3 17.075C5.2 17.2083 5.079 17.3127 4.937 17.388C4.795 17.4633 4.641 17.5007 4.475 17.5H3.875C3.54166 17.5 3.27066 17.3623 3.062 17.087C2.85333 16.8117 2.79933 16.5077 2.9 16.175L4 12.5L2.9 8.825C2.8 8.49167 2.854 8.18733 3.062 7.912C3.27 7.63667 3.541 7.49933 3.875 7.5H4.475C4.64166 7.5 4.79567 7.53767 4.937 7.613C5.07833 7.68833 5.19933 7.79233 5.3 7.925L7.1 10.5H10.7Z" fill="black"/>
</svg>
